#tb 0: 1001/30000
0,          0,          0,        1,    70560, bb903b926c4b34ae336e21d65ad8fd25
0,          1,          1,        1,    70560, c4c0bc3b112487e994d22176817ace3c
0,          2,          2,        1,    70560, 24e699f7a92ab1b0fe12e0b747470b5b
0,          3,          3,        1,    70560, 200f403694d3acfda63f52e8373f1420
0,          4,          4,        1,    70560, 6df417a8ec1810562301c89724b739d1
0,          5,          5,        1,    70560, 55757b633d8fe669fc0f507dab4fa9f7
0,          6,          6,        1,    70560, 45bc82bee02cb45422be3ac1019896d0
0,          7,          7,        1,    70560, 4aaf5d07d2796910767d5084556c9cf9
0,          8,          8,        1,    70560, f100fa26da47250b98d95a18915f521d
0,          9,          9,        1,    70560, f5a8def53b4638b6ce7c8588d595d0ad
